<?xml version="1.0" encoding="utf-8"?>
<!-- Generator: Adobe Illustrator 18.1.1, SVG Export Plug-In . SVG Version: 6.00 Build 0)  -->
<svg version="1.1" xmlns="http://www.w3.org/2000/svg" xmlns:xlink="http://www.w3.org/1999/xlink" x="0px" y="0px"
	 viewBox="0 0 222 184" enable-background="new 0 0 222 184" xml:space="preserve">
<g id="Layer_1" display="none">
</g>
<g id="Layer_2">
	<path d="M72.3,129.5C72.3,129.5,72.3,129.5,72.3,129.5l-1.7,0.1c-0.1,0-0.3,0-0.4,0.1c-3.4,2.3-11.7,5.3-24.8,9.1
		c-6-1.9-6.2-3.1-6.2-3.1c0.1-5.3,6.3-15.2,18.4-29.6c0.1-0.1,0.1-0.1,0.1-0.2c1.8-4.8,13.1-17.5,33.4-37.8
		c7.9-8.2,12.9-15.2,14.8-21c0-0.1,0.1-0.3,0-0.4c-0.4-1.4-1.9-2.6-4.8-3.7c-0.1-0.1-0.3-0.1-0.5,0l-4.2,1
		c-6.5,0.3-20.7,8.4-43.3,24.8l0.4-10c0-0.3-0.1-0.5-0.4-0.7l-2.6-1.6c-0.1-0.1-0.3-0.1-0.4-0.1c-1.3,0-4.6,1.9-18.7,16
		c-3.9,4.7-9.4,13.1-16.2,25L8,105.9c-0.1,0.1-0.2,0.3-0.2,0.5c0.1,2.2,3.4,2.3,4.4,2.3c0.2,0,0.5,0,0.7,0l0.9,0
		c0.1,0,0.2,0,0.3-0.1l3.3-1.8c0.2-0.1,0.3-0.2,0.4-0.4c5-13.8,14.8-27.4,29.3-40.5l-0.5,4.7c0,0,0,0.1,0,0.1l0.1,1.6
		c0.1,1.7,1.7,2.8,5,3.1c0.1,0,0.2,0,0.4,0l7.6-2.8c0.1,0,0.2-0.1,0.2-0.1c17-14.4,29.7-21.8,37.8-22.1c-0.4,1.3-1.8,3.8-6.1,9
		C68.1,83.4,64.8,87.7,64.3,88.9c-12.3,12.7-14.5,16.5-14.7,18.3c-11.6,14.6-17.1,24-17,28.6l0.1,1.7c0,0.1,0,0.3,0.1,0.4
		c2.4,3.9,6.6,5.8,12.6,5.8c0.3,0,0.7,0,1,0c4.6-0.2,12.6-3.7,24.5-11l0.3,0l0.6,0.6c0.2,0.2,0.6,0.3,0.9,0.2
		c0.3-0.1,0.5-0.4,0.5-0.7l-0.1-2.5C73.1,129.8,72.7,129.5,72.3,129.5z"/>
	<path d="M97,84.2l-0.4,0.3l-0.3-0.4c-0.2-0.3-0.6-0.3-0.9-0.2c-4.2,2.1-4.9,3-4.9,3.8l-0.1,1.2c0,0.2,0,0.4,0.2,0.5l1.6,1.9
		c0.1,0.2,0.3,0.3,0.5,0.3l1.8,0.1c0,0,0,0,0.1,0c0.3,0,0.6-0.2,0.7-0.5c1.4-4.3,2.4-4.5,2.6-4.5c0,0,0,0,0,0c0.4,0,0.8-0.2,0.8-0.6
		l0.1-0.6c0-0.2,0-0.5-0.2-0.6l-0.6-0.6C97.8,83.9,97.3,83.9,97,84.2z"/>
	<path d="M90.8,95.3c-0.1-0.3-0.3-0.5-0.6-0.5l-0.4-0.1l-0.4-0.4c-0.1-0.1-0.3-0.2-0.5-0.2l-1.8-0.2c-0.2,0-0.4,0-0.6,0.2
		c-6.1,4.7-9.3,8.5-9.7,11.7l0,0.6c0,0.2,0.1,0.4,0.2,0.6l1.1,1.2c0.1,0.1,0.3,0.2,0.5,0.3l0.6,0.1c0,0,0.1,0,0.1,0
		c0.2,0,0.4-0.1,0.6-0.3l10.7-12.2C90.9,95.9,90.9,95.6,90.8,95.3z"/>
	<path d="M210.1,100.5c0-0.2-0.1-0.5-0.3-0.6c-0.2-0.1-0.4-0.2-0.7-0.1l-3,0.8l-0.4-0.1c-0.1-0.3-0.4-0.4-0.7-0.4l-2.1,0.1
		c-0.3,0-0.6,0.2-0.7,0.5l-0.5,0.1l-2.5,0.1l-3-0.3l3.7-2.9c2.3-0.2,2.5-1.7,2.5-2.4c0-0.1,0-0.2,0-0.2l-0.5-1.6
		c-0.1-0.3-0.4-0.6-0.8-0.5l-6.3,0.7c-2,0.1-4.1-0.5-6-1.7c-0.2-0.2-0.5-0.2-0.8,0c-0.2,0.1-0.3,0.2-0.3,0.4l-0.4,0
		c-0.4,0-0.7,0.3-0.7,0.7c-0.3,1.6-0.7,2.6-1.2,2.6c-0.2,0-0.4,0.1-0.6,0.3c-1.2,1.4-2.3,2.5-3.3,3.5l-0.6,0c-0.1,0-0.3,0-0.4,0.1
		c-0.2-0.1-0.3-0.1-0.5-0.1l-6.6,1.6l-0.4-0.4c-0.1-0.1-0.4-0.2-0.6-0.2c-0.2,0-0.4,0.1-0.6,0.2l-0.5,0.5l-11,0.4l-4.3-0.5l0-0.8
		c8-1.7,11.9-4.7,11.8-8.7c0-0.2-0.1-0.5-0.3-0.6l-2.9-2c-0.1-0.1-0.3-0.1-0.5-0.1c-1.4,0-4.4,0.9-14.3,7.6l-5.5,3.7l-2.7,0.6
		c-0.4,0.1-0.6,0.4-0.6,0.8l0.1,2.1c0,0.1,0,0.1,0,0.2c-0.8,0.1-1.7,0.3-2.6,0.4c-0.1-0.1-0.2-0.2-0.4-0.3c-0.3-0.1-0.6-0.1-0.8,0.2
		l-0.3,0.3c-0.2,0-0.4,0-0.6,0c-1.6,0-4.3-0.2-4.6-1.5l1.3-2.8c4-4.4,9.5-8.6,16.4-12.6c19.3-11.1,21.7-14.5,21.6-16.3
		c0-0.3-0.2-0.6-0.4-0.7l-2.1-1c-0.1-0.1-0.2-0.1-0.4-0.1c-4,0.1-11,3.9-21.4,11.7c-8.6,8.1-17.5,14.9-26.3,20.3c0,0,0,0,0,0
		c-0.2-0.1-0.5-0.2-0.7-0.1c-2.9,0.9-4.1,1.8-4.1,2.9l0,0.3c-0.8,0.1-1.7,0.3-2.8,0.5c-0.1-0.1-0.2-0.2-0.4-0.3
		c-0.3-0.1-0.6-0.1-0.8,0.2l-0.3,0.3c-0.2,0-0.4,0-0.6,0c-1.6,0-4.3-0.2-4.6-1.5l1.3-2.8c4-4.4,9.5-8.6,16.4-12.6
		c19.3-11.1,21.7-14.5,21.6-16.3c0-0.3-0.2-0.6-0.4-0.7l-2.1-1c-0.1-0.1-0.2-0.1-0.4-0.1c-4,0.1-11,3.9-21.4,11.7
		c-8.6,8.1-17.5,14.9-26.3,20.3c0,0,0,0,0,0c-0.2-0.1-0.5-0.2-0.7-0.1c-2.9,0.9-4.1,1.8-4.1,2.9l0.1,1.5c0,0.2,0.1,0.4,0.2,0.5
		l0.5,0.5c0.2,0.2,0.5,0.3,0.7,0.2l2.5-0.6l0.1,0l0.3,0.3c0.3,0.2,0.7,0.3,1,0.1l5.8-4.1l-0.3,1c-0.1,0.2,0,0.4,0,0.5
		c1.4,3.2,4.1,4.8,8.1,4.8c0.2,0,0.3,0,0.5,0l0.6,0c0.2,0,0.4-0.1,0.5-0.2l0.2-0.2l0.2,0.2c0.2,0.2,0.4,0.2,0.7,0.2
		c3.6-0.7,6.4-1.7,8.3-3c0.3,0.2,0.6,0.2,0.9,0l5.8-4.1l-0.3,1c-0.1,0.2,0,0.4,0,0.5c1.4,3.2,4.1,4.8,8.1,4.8c0.2,0,0.3,0,0.5,0
		l0.6,0c0.2,0,0.4-0.1,0.5-0.2l0.2-0.2l0.2,0.2c0.2,0.2,0.4,0.2,0.7,0.2c4.2-0.8,7.1-1.9,9.1-3.6c0.1-0.1,0.2-0.2,0.2-0.3l2.3-1.1
		c2.1,1.8,4.2,3,6.2,3.5c0.1,0,0.1,0,0.2,0c0.2,0,0.3-0.1,0.5-0.2c0.1-0.1,0.2-0.3,0.3-0.4l2.7,0.5c0.1,0,0.1,0,0.2,0l8.5-0.3
		c0.1,0,0.2,0,0.3-0.1c0.2,0.1,0.3,0.1,0.5,0l7.9-2.2l0,0.3c0,0.2,0.1,0.4,0.2,0.6c0.1,0.1,0.3,0.2,0.5,0.2c0,0,0,0,0,0
		c4-0.1,8.5-2.7,13.3-7.7l1.1,0.2l-0.4,0.6c-0.1,0.1-0.1,0.3-0.1,0.4l0,0.5c0.1,3.9,2.2,5.1,4,5.4c0.1,0,0.1,0,0.2,0l0.5,0
		c0.2,0,0.4-0.1,0.5-0.2l0,0l0,0c0.1,0.1,0.3,0.2,0.6,0.2l2.1-0.1c2.8-0.1,5.9-0.7,9-1.9c0.1,0.1,0.2,0.1,0.3,0.2
		c0.3,0.1,0.6,0,0.8-0.2l1-1.1c0.1-0.1,0.2-0.4,0.2-0.6L210.1,100.5z"/>
	<g>
		<path d="M62.3,36c0-0.1-0.1-0.2-0.2-0.3l-8.9-3.2c-0.1-0.1-0.3,0-0.4,0.1c-0.1,0.1-0.1,0.3-0.1,0.4l3.3,8.9c0,0.1,0.2,0.2,0.3,0.2
			c0,0,0.1,0,0.1,0c0.1,0,0.2,0,0.3-0.1l0.8-0.8c0.1-0.1,0.1-0.3,0.1-0.4l-0.7-1.9l2.3-2.4l1.9,0.7c0.1,0.1,0.3,0,0.4-0.1l0.8-0.8
			C62.3,36.2,62.3,36.1,62.3,36z M56.1,37.1l-0.8-2l2,0.8L56.1,37.1z"/>
		<path d="M75.1,27c0.2-0.1,0.2-0.3,0.1-0.5l-0.5-0.8c-0.1-0.1-0.1-0.1-0.2-0.2c-0.1,0-0.2,0-0.3,0l-1.8,1.1l-3.6-5.9
			c-0.1-0.1-0.1-0.1-0.2-0.2c-0.1,0-0.2,0-0.3,0l-0.9,0.5c-0.2,0.1-0.2,0.3-0.1,0.5l4.3,7c0.1,0.1,0.1,0.1,0.2,0.2c0,0,0.1,0,0.1,0
			c0.1,0,0.1,0,0.2-0.1L75.1,27z"/>
		<path d="M85.5,17.1c-0.7-1.7-2.4-2.8-4.3-2.8c-0.6,0-1.3,0.1-1.9,0.4c-2.4,1-3.5,3.8-2.5,6.2c0.8,1.7,2.4,2.8,4.3,2.8
			c0.7,0,1.3-0.1,1.9-0.4C85.4,22.2,86.5,19.5,85.5,17.1z M83.8,20.1c-0.3,0.7-0.8,1.3-1.6,1.6c-0.4,0.2-0.8,0.2-1.2,0.2
			c-1.2,0-2.2-0.7-2.7-1.8c-0.3-0.7-0.3-1.5-0.1-2.2c0.3-0.7,0.8-1.3,1.6-1.6c0.4-0.2,0.8-0.3,1.2-0.3c1.2,0,2.2,0.7,2.6,1.8
			C84.1,18.5,84.1,19.4,83.8,20.1z"/>
		<path d="M96.8,9.4l-1,0.2c-0.1,0-0.2,0.1-0.2,0.2c-0.1,0.1-0.1,0.2,0,0.3l1.2,5l-6.8-4.3c-0.1-0.1-0.3-0.1-0.4,0
			c-0.1,0.1-0.2,0.3-0.2,0.4l2,8.4c0,0.2,0.2,0.3,0.4,0.3c0,0,0.1,0,0.1,0l1-0.2c0.2,0,0.3-0.3,0.3-0.5l-1.2-5l6.8,4.3
			c0.1,0.1,0.3,0.1,0.4,0c0.1-0.1,0.2-0.3,0.2-0.4l-2-8.3C97.2,9.5,97,9.3,96.8,9.4z"/>
		<path d="M112.2,12.6l0-0.3c0-0.1-0.1-0.2-0.1-0.3c-0.1-0.1-0.2-0.1-0.3-0.1l-3.3,0.2c-0.1,0-0.2,0.1-0.3,0.1
			c-0.1,0.1-0.1,0.2-0.1,0.3l0.1,0.9c0,0.2,0.2,0.4,0.4,0.4l1.7-0.1c-0.2,1-1.2,1.8-2.2,1.8c-1.5,0.1-2.9-1.2-3-2.8
			c-0.1-1.7,1.1-3,2.7-3.1l0.2,0c0.8,0,1.7,0.4,2.2,1c0.1,0.1,0.2,0.1,0.3,0.1c0.1,0,0.2,0,0.3-0.1l0.7-0.7c0.1-0.1,0.1-0.4,0-0.5
			c-0.9-1-2.3-1.6-3.8-1.5c-1.3,0.1-2.4,0.6-3.2,1.6c-0.8,0.9-1.2,2.1-1.2,3.4c0.1,2.4,2.2,4.4,4.6,4.4c0.1,0,0.2,0,0.3,0
			C110.6,17.1,112.3,15.2,112.2,12.6z"/>
		<path d="M130.9,18.7c0.1,0,0.2-0.2,0.3-0.3l0.2-1.2c0-0.1,0-0.3-0.2-0.4c-0.1-0.1-0.3-0.1-0.4,0c-0.6,0.4-1.4,0.5-2.1,0.3
			c-1.6-0.3-2.6-1.9-2.2-3.5c0.3-1.6,1.9-2.7,3.4-2.3c0.7,0.1,1.3,0.5,1.8,1.1c0.1,0.1,0.2,0.2,0.4,0.1c0.1,0,0.3-0.2,0.3-0.3
			l0.2-1.2c0-0.1,0-0.3-0.1-0.4c-0.6-0.5-1.3-0.9-2.1-1.1c-0.3-0.1-0.7-0.1-1-0.1c-2.3,0-4.2,1.5-4.6,3.8c-0.5,2.5,1.2,5,3.7,5.5
			c0.3,0.1,0.6,0.1,0.9,0.1C129.9,18.9,130.5,18.8,130.9,18.7z"/>
		<path d="M141.2,22.3c0,0.2,0.1,0.3,0.3,0.3l1,0.4c0,0,0.1,0,0.1,0c0,0,0,0,0,0c0.2,0,0.4-0.2,0.4-0.4c0-0.1,0-0.1,0-0.1l-0.7-9.3
			c0-0.2-0.1-0.3-0.3-0.3c-0.1-0.1-0.3,0-0.4,0.1l-6.7,6.7c-0.1,0.1-0.1,0.2-0.1,0.4c0,0.1,0.1,0.2,0.2,0.3l1,0.4
			c0.1,0.1,0.3,0,0.4-0.1l1.4-1.4l3.1,1.2L141.2,22.3z M140.9,18.4l-1.7-0.6l1.5-1.6L140.9,18.4z"/>
		<path d="M157.5,20.5c-0.1-0.1-0.3-0.1-0.5,0l-5,3.7l0.7-6.2c0-0.2-0.1-0.3-0.2-0.4c-0.2-0.1-0.3,0-0.4,0.1l-5.8,6.6
			c-0.1,0.1-0.1,0.2-0.1,0.3c0,0.1,0.1,0.2,0.2,0.3l0.9,0.5c0.2,0.1,0.4,0.1,0.5-0.1l2.8-3.3l-0.5,4.9c0,0.2,0.1,0.3,0.2,0.4
			c0.1,0.1,0.3,0.1,0.4,0l4-2.9l-1.5,4c-0.1,0.2,0,0.4,0.2,0.5l0.9,0.5c0.1,0,0.1,0.1,0.2,0.1c0,0,0.1,0,0.1,0
			c0.1,0,0.2-0.1,0.2-0.2l2.8-8.3C157.7,20.8,157.7,20.6,157.5,20.5z"/>
		<path d="M161.8,35.3c0.1,0.1,0.2,0.1,0.2,0.1c0,0,0,0,0,0c0.1,0,0.2-0.1,0.3-0.1l0.6-0.7c0.1-0.2,0.1-0.4-0.1-0.5l-2.4-1.9
			l1.5-1.8l2.3,1.9c0.2,0.1,0.4,0.1,0.5-0.1l0.6-0.7c0.1-0.1,0.1-0.2,0.1-0.3c0-0.1-0.1-0.2-0.1-0.3l-2.3-1.9l1-1.2l2.4,1.9
			c0.2,0.1,0.4,0.1,0.5-0.1l0.6-0.7c0.1-0.1,0.1-0.2,0.1-0.3c0-0.1-0.1-0.2-0.1-0.3l-3.5-2.8c-0.1-0.1-0.2-0.1-0.3-0.1
			c-0.1,0-0.2,0.1-0.3,0.1l-5.2,6.4c-0.1,0.2-0.1,0.4,0.1,0.5L161.8,35.3z"/>
		<path d="M171,44.8c0.1,0.1,0.2,0.2,0.4,0.1l2-0.4l2,2.7l-1,1.8c-0.1,0.1-0.1,0.3,0,0.4l0.7,0.9c0.1,0.1,0.2,0.2,0.3,0.2
			c0,0,0,0,0,0c0.1,0,0.2-0.1,0.3-0.2l4.5-8.3c0.1-0.1,0.1-0.3,0-0.4c-0.1-0.1-0.2-0.2-0.4-0.1l-9.2,2c-0.1,0-0.2,0.1-0.3,0.2
			c0,0.1,0,0.3,0,0.4L171,44.8z M177.3,43.6l-1.1,1.9l-1.1-1.4L177.3,43.6z"/>
		<path d="M178.2,53.9c-0.5,0.3-0.7,0.9-0.4,1.4c0.2,0.3,0.5,0.5,0.9,0.5c0.2,0,0.3,0,0.5-0.1c0.2-0.1,0.4-0.4,0.5-0.6
			c0.1-0.3,0-0.5-0.1-0.8C179.4,53.8,178.7,53.7,178.2,53.9z"/>
		<path d="M182.1,62.6c0.1,0,0.3,0,0.4-0.1c0.2-0.1,0.4-0.3,0.5-0.6c0.1-0.3,0.1-0.5,0-0.8c-0.2-0.5-0.8-0.8-1.3-0.5
			c-0.5,0.2-0.7,0.8-0.5,1.3C181.3,62.4,181.7,62.6,182.1,62.6z"/>
		<path d="M184.8,69.6c0.1,0,0.2,0,0.3,0c0.3-0.1,0.5-0.3,0.6-0.5c0.1-0.2,0.1-0.5,0.1-0.8c-0.2-0.5-0.8-0.8-1.3-0.7
			c-0.3,0.1-0.5,0.3-0.6,0.5c-0.1,0.2-0.1,0.5-0.1,0.8C184,69.4,184.4,69.6,184.8,69.6z"/>
		<path d="M68.4,153.2l-1.4-1c-0.1-0.1-0.2-0.1-0.3-0.1c-0.1,0-0.2,0.1-0.2,0.2l-4.7,6.7c-0.1,0.2-0.1,0.4,0.1,0.5l1.4,1
			c1.1,0.7,2.2,1.1,3.3,1.1c1.4,0,2.6-0.7,3.5-2C71.6,157.6,70.9,155,68.4,153.2z M68.5,158.8c-0.6,0.8-1.2,1.2-2,1.2
			c-0.7,0-1.6-0.3-2.4-0.9l3.2-4.6C69.1,155.8,69.6,157.3,68.5,158.8z"/>
		<path d="M80.3,160.3l-4-2c-0.2-0.1-0.4,0-0.5,0.2l-3.8,7.3c0,0.1-0.1,0.2,0,0.3c0,0.1,0.1,0.2,0.2,0.2l4,2c0.1,0,0.1,0,0.2,0
			c0,0,0.1,0,0.1,0c0.1,0,0.2-0.1,0.2-0.2l0.4-0.8c0.1-0.2,0-0.4-0.2-0.5l-2.7-1.4l1.1-2.1l2.6,1.3c0.2,0.1,0.4,0,0.5-0.2l0.4-0.8
			c0-0.1,0.1-0.2,0-0.3c0-0.1-0.1-0.2-0.2-0.2l-2.6-1.3l0.7-1.4l2.7,1.4c0.1,0,0.2,0.1,0.3,0c0.1,0,0.2-0.1,0.2-0.2l0.4-0.8
			C80.6,160.6,80.5,160.4,80.3,160.3z"/>
		<path d="M88.7,163.4c-0.5-0.2-1.1-0.3-1.6-0.3c-2,0-3.8,1.2-4.5,3.1c-0.4,1.2-0.3,2.4,0.2,3.6c0.6,1.1,1.5,2,2.7,2.4
			c0.5,0.2,1.1,0.3,1.6,0.3c0.3,0,0.6,0,0.8-0.1c0.1,0,0.2-0.1,0.3-0.2l0.4-1.1c0.1-0.1,0-0.3-0.1-0.4c-0.1-0.1-0.3-0.1-0.4-0.1
			c-0.7,0.3-1.4,0.3-2.1,0.1c-1.5-0.5-2.3-2.2-1.7-3.7c0.5-1.5,2.2-2.4,3.7-1.8c0.7,0.2,1.3,0.7,1.6,1.3c0.1,0.1,0.2,0.2,0.4,0.2
			c0.2,0,0.3-0.1,0.3-0.3l0.4-1.1c0-0.1,0-0.3-0.1-0.4C90.2,164.2,89.5,163.7,88.7,163.4z"/>
		<path d="M94.7,172.7c-0.5-0.1-1.1,0.2-1.2,0.8c-0.1,0.5,0.2,1.1,0.8,1.2c0.1,0,0.2,0,0.2,0c0.5,0,0.9-0.3,1-0.8
			c0.1-0.3,0-0.5-0.1-0.8C95.2,172.9,95,172.8,94.7,172.7z"/>
		<path d="M114.8,170.2c0-0.8-0.3-1.5-0.9-2.1c-0.6-0.5-1.3-0.8-2.1-0.8c-1.6,0-2.8,1.1-3,2.8c0,0.1,0,0.2,0.1,0.3
			c0.1,0.1,0.2,0.1,0.3,0.1l1,0c0,0,0,0,0,0c0.2,0,0.4-0.2,0.4-0.4c0-0.6,0.6-1.1,1.2-1.1c0.7,0,1.2,0.6,1.2,1.2
			c0,0.4-0.3,0.8-0.7,1.2l-3.7,4.4c-0.1,0.1-0.1,0.3-0.1,0.4c0.1,0.1,0.2,0.2,0.3,0.2l5.4,0.1c0,0,0,0,0,0c0.2,0,0.4-0.2,0.4-0.4
			l0-0.9c0-0.1,0-0.2-0.1-0.3c-0.1-0.1-0.2-0.1-0.3-0.1l-2.5,0l2.2-2.7C114.6,171.6,114.8,170.9,114.8,170.2z"/>
		<path d="M124.5,170.9c0.4-0.5,0.6-1.2,0.5-1.9c-0.2-1.5-1.5-2.4-3.1-2.2c-1.6,0.2-2.5,1.2-2.5,2.7c0,0.1,0,0.2,0.1,0.3
			c0.1,0.1,0.2,0.1,0.3,0.1l1-0.1c0.2,0,0.3-0.2,0.3-0.4c0-0.5,0.3-0.9,0.9-1c0.6-0.1,1.1,0.3,1.2,0.9c0,0.3,0,0.5-0.1,0.7
			c-0.2,0.3-0.7,0.4-1,0.4c-0.1,0-0.2,0.1-0.3,0.1c-0.1,0.1-0.1,0.2-0.1,0.3l0.1,0.8c0,0.1,0.1,0.2,0.2,0.3c0.1,0.1,0.2,0.1,0.3,0.1
			c0.8-0.2,1.4,0.2,1.5,1c0,0.3,0,0.7-0.2,0.9c-0.2,0.3-0.5,0.4-0.8,0.5c-0.7,0.1-1.2-0.3-1.3-0.8c0-0.2-0.2-0.3-0.4-0.3l-1,0.1
			c-0.1,0-0.2,0.1-0.3,0.2c-0.1,0.1-0.1,0.2-0.1,0.3c0.2,1.3,1.4,2.2,2.8,2.2c0.1,0,0.3,0,0.4,0c0.9-0.1,1.7-0.5,2.1-1.1
			c0.4-0.6,0.6-1.3,0.5-2.1C125.5,172,125.1,171.3,124.5,170.9z"/>
		<path d="M133.9,169.9c0.9-0.6,1.3-1.7,1-2.9c-0.2-0.9-0.9-1.7-1.8-1.9c-0.7-0.2-1.5,0-2.4,0.2l-1.2,0.3c-0.2,0.1-0.3,0.3-0.3,0.5
			l2.1,8c0,0.1,0.1,0.2,0.2,0.2c0.1,0,0.1,0.1,0.2,0.1c0,0,0.1,0,0.1,0l1-0.3c0.2-0.1,0.3-0.3,0.3-0.5l-0.7-2.8l2.9,2.4
			c0.1,0.1,0.2,0.1,0.3,0.1l1.2-0.3c0.1,0,0.2-0.1,0.3-0.3c0-0.1,0-0.3-0.1-0.4L133.9,169.9z M133,168.5c-0.3,0.3-0.8,0.4-1.2,0.5
			l-0.6-2.1c1.2-0.3,1.8-0.1,2,0.6C133.4,168,133.3,168.3,133,168.5z"/>
		<path d="M142.7,161.8c-0.8,0-1.6,0.2-2.4,0.5l-1.6,0.7c-0.2,0.1-0.3,0.3-0.2,0.5l3.1,7.6c0,0.1,0.1,0.2,0.2,0.2c0,0,0.1,0,0.1,0
			c0.1,0,0.1,0,0.1,0l1.6-0.6c1.3-0.5,2.3-1.4,2.9-2.4c0.6-1.1,0.6-2.4,0.1-3.7C145.9,162.7,144.5,161.8,142.7,161.8z M142.8,169.1
			l-2.1-5.2c2.1-0.9,3.6-0.5,4.3,1.2C145.7,166.9,145,168.2,142.8,169.1z"/>
		<path d="M163.8,157.7c-0.1-0.2-0.4-0.2-0.5-0.1l-2,1.5l0.2-3.5c0-0.7-0.2-1.4-0.6-2c-0.5-0.7-1.4-1.2-2.3-1.2
			c-0.6,0-1.3,0.2-1.8,0.6c-1.4,1-1.7,2.5-0.8,4c0.1,0.1,0.1,0.2,0.3,0.2c0.1,0,0.2,0,0.3-0.1l0.8-0.6c0.2-0.1,0.2-0.3,0.1-0.5
			c-0.3-0.5-0.2-1.3,0.3-1.6c0.5-0.4,1.3-0.3,1.7,0.2c0.2,0.3,0.2,0.9,0.2,1.4l-0.4,5.7c0,0.1,0.1,0.3,0.2,0.4c0.1,0,0.1,0,0.2,0
			c0.1,0,0.2,0,0.2-0.1l4.4-3.1c0.1-0.1,0.1-0.1,0.2-0.3c0-0.1,0-0.2-0.1-0.3L163.8,157.7z"/>
		<path d="M166.3,146c-0.7,0-1.4,0.3-1.9,0.8c-0.8,0.8-1,1.8-0.7,3c0.2,0.9,0.8,1.9,1.5,2.6c0.8,0.9,2.3,1.9,3.7,1.9
			c0.7,0,1.4-0.2,1.9-0.7c1.8-1.7,0.5-4.3-0.8-5.7C169.2,147,167.7,146,166.3,146z M169.7,152.3c-0.2,0.2-0.4,0.3-0.7,0.3
			c-0.8,0-1.8-0.7-2.5-1.4c-0.7-0.7-1.8-2.4-1-3.2c0.2-0.2,0.4-0.3,0.7-0.3c0.8,0,1.9,0.7,2.5,1.4
			C169.4,149.8,170.5,151.5,169.7,152.3z"/>
		<path d="M172.3,138.9c-0.1-0.1-0.2-0.1-0.3-0.1c-0.1,0-0.2,0.1-0.3,0.1l-1.2,1.4c-0.1,0.1-0.1,0.2-0.1,0.4l0.4,1
			c0,0.1,0.2,0.2,0.3,0.3c0.1,0,0.3,0,0.4-0.1l0.7-0.8l5.4,4.3c0.1,0.1,0.2,0.1,0.2,0.1c0,0,0,0,0,0c0.1,0,0.2-0.1,0.3-0.1l0.6-0.8
			c0.1-0.2,0.1-0.4-0.1-0.5L172.3,138.9z"/>
		<path d="M185.8,133.7l-0.7-0.4l0.3-0.5c0.1-0.1,0.1-0.2,0-0.3c0-0.1-0.1-0.2-0.2-0.2l-0.8-0.5c-0.2-0.1-0.4-0.1-0.5,0.1l-0.3,0.5
			l-5.2-3.2c-0.1-0.1-0.3-0.1-0.5,0c-0.1,0.1-0.2,0.3-0.1,0.4l3.7,8.2c0.1,0.1,0.2,0.2,0.3,0.2c0,0,0,0,0,0c0.1,0,0.3-0.1,0.3-0.2
			l1.9-3.2l0.7,0.4c0.1,0.1,0.2,0.1,0.3,0c0.1,0,0.2-0.1,0.2-0.2l0.5-0.8C186,134,186,133.8,185.8,133.7z M182.7,133.9l-0.6,1.1
			l-0.9-2L182.7,133.9z"/>
	</g>
</g>
</svg>
